<?xml version="1.0" standalone="no"?>
<!DOCTYPE svg PUBLIC "-//W3C//DTD SVG 20010904//EN"
 "http://www.w3.org/TR/2001/REC-SVG-20010904/DTD/svg10.dtd">
<svg version="1.0" xmlns="http://www.w3.org/2000/svg"
 width="386.000000pt" height="419.000000pt" viewBox="0 0 386.000000 419.000000"
 preserveAspectRatio="xMidYMid meet">

<g transform="translate(0.000000,419.000000) scale(0.100000,-0.100000)"
fill="#000000" stroke="none">
<path d="M1191 4008 c-164 -26 -326 -173 -465 -420 -15 -27 -33 -48 -40 -48
-7 0 -41 -11 -75 -26 -260 -105 -413 -335 -380 -569 30 -217 165 -392 415
-543 43 -26 79 -52 79 -57 0 -5 -34 -24 -75 -41 -166 -68 -295 -178 -352 -300
-111 -238 27 -530 380 -804 71 -55 82 -68 107 -128 125 -300 342 -471 550
-433 76 14 186 68 249 123 69 59 153 168 222 287 32 55 61 97 65 93 3 -4 27
-71 52 -150 53 -164 117 -301 214 -454 91 -143 154 -222 204 -255 40 -26 50
-28 197 -34 181 -8 215 -1 249 50 27 40 31 107 8 154 -8 18 -56 82 -107 142
-50 61 -116 144 -147 185 -61 83 -173 261 -167 267 2 3 39 -14 82 -35 266
-134 527 -167 698 -89 130 60 228 228 272 466 13 70 24 100 64 161 65 103 105
184 143 293 30 87 32 100 32 237 0 143 0 146 -32 213 -61 128 -200 233 -353
267 -99 22 -98 19 -16 88 88 74 168 176 196 250 13 35 20 77 20 126 0 64 -5
82 -35 144 -58 114 -164 198 -348 273 -55 23 -78 37 -87 57 -35 77 -151 235
-229 312 -177 175 -368 223 -545 136 -133 -65 -268 -239 -366 -471 -19 -44
-37 -84 -41 -88 -3 -5 -18 31 -33 80 -114 372 -349 582 -605 541z m220 -95
c187 -92 329 -358 394 -737 6 -37 8 -33 51 95 112 336 271 568 431 629 66 26
164 31 228 12 140 -41 304 -201 429 -418 41 -71 50 -82 85 -93 22 -6 81 -32
131 -57 230 -115 312 -278 229 -454 -39 -83 -167 -211 -301 -300 l-98 -65 118
-6 c133 -7 211 -26 297 -74 158 -88 231 -241 204 -430 -20 -147 -75 -285 -170
-430 -44 -67 -55 -93 -66 -160 -20 -115 -70 -258 -114 -325 -73 -114 -164
-156 -329 -153 -210 3 -444 92 -652 251 -32 24 -58 41 -58 38 0 -3 20 -51 44
-105 75 -172 194 -354 366 -561 109 -132 123 -154 122 -192 -2 -61 -19 -68
-179 -68 -167 0 -189 6 -251 74 -59 64 -171 238 -239 370 -51 101 -134 331
-178 498 l-18 68 -69 -128 c-101 -184 -167 -279 -251 -359 -98 -93 -165 -125
-275 -131 -80 -4 -86 -3 -156 32 -122 60 -223 185 -298 369 -31 74 -35 80
-123 146 -170 130 -310 295 -366 432 -18 42 -23 75 -23 149 -1 84 2 101 26
150 39 79 88 132 176 190 84 55 189 99 319 134 l84 22 -127 63 c-162 79 -254
143 -346 239 -83 88 -117 140 -148 232 -87 255 70 518 365 612 68 21 75 26 92
63 25 56 122 201 171 256 135 151 318 198 473 122z"/>
<path d="M1158 3855 c-112 -41 -214 -151 -318 -343 l-45 -84 -89 -29 c-370
-123 -458 -458 -191 -725 102 -101 227 -177 457 -278 65 -28 96 -60 85 -88 -6
-17 -112 -58 -236 -93 -196 -54 -343 -151 -397 -262 -89 -181 33 -407 352
-654 87 -67 102 -84 113 -121 25 -83 104 -220 164 -284 108 -116 221 -146 342
-90 142 65 243 197 430 565 78 153 79 153 116 26 73 -251 134 -445 159 -503
61 -144 212 -390 284 -464 37 -38 37 -38 120 -38 46 0 105 -3 131 -7 44 -6 47
-5 37 13 -6 10 -52 69 -102 129 -230 276 -370 518 -454 783 -28 89 -35 172
-13 172 18 0 30 -11 59 -57 140 -216 555 -419 816 -400 127 10 198 61 253 183
30 67 64 189 75 272 5 41 19 71 62 135 142 210 202 434 157 585 -21 71 -98
153 -178 191 -80 37 -144 50 -292 55 -66 3 -140 9 -165 13 -38 7 -45 12 -48
34 -3 29 -7 27 167 140 214 140 341 285 341 389 0 118 -137 238 -350 309 -63
21 -66 23 -98 84 -125 243 -299 410 -449 433 -108 16 -221 -43 -312 -163 -72
-96 -152 -256 -206 -413 -25 -74 -57 -164 -72 -198 -26 -61 -28 -64 -56 -58
-16 3 -33 6 -37 6 -8 0 -30 87 -50 195 -60 321 -184 551 -343 630 -59 29 -155
33 -219 10z m551 -874 c119 -31 592 -88 824 -100 142 -7 149 -9 190 -38 27
-19 52 -49 69 -84 24 -48 27 -65 28 -157 0 -102 -1 -104 -29 -131 -27 -25 -33
-46 -79 -262 -39 -187 -48 -247 -45 -299 l5 -65 -234 -147 c-128 -80 -245
-152 -260 -158 -24 -11 -84 1 -508 106 -399 98 -483 122 -492 138 -6 11 -12
54 -13 96 -2 77 -58 381 -75 412 -6 10 -10 29 -10 44 0 14 -11 40 -25 58 -40
53 -35 117 21 262 44 112 50 123 114 184 57 54 82 71 156 99 116 45 278 64
363 42z"/>
<path d="M1540 2936 c-117 -27 -205 -70 -257 -127 -42 -46 -119 -256 -101
-274 3 -4 89 -20 189 -36 201 -33 652 -106 711 -115 27 -4 39 -2 42 8 58 198
112 315 172 372 22 20 66 51 99 68 l60 32 -105 13 c-573 70 -717 81 -810 59z"/>
<path d="M2533 2770 c-125 -64 -208 -187 -228 -338 l-7 -53 215 108 c164 81
217 112 221 129 8 29 -19 115 -44 144 -29 33 -102 38 -157 10z"/>
<path d="M2474 2326 l-191 -100 -28 -246 c-16 -141 -32 -248 -39 -252 -8 -6
-7 -8 2 -8 7 0 10 -5 6 -11 -4 -7 2 -7 17 1 56 30 315 184 327 195 10 9 107
516 99 520 -1 0 -88 -44 -193 -99z"/>
<path d="M1185 2338 c9 -43 53 -293 66 -375 7 -46 15 -86 18 -91 3 -4 40 -15
81 -25 41 -9 165 -37 275 -62 110 -25 218 -49 240 -54 22 -5 74 -17 115 -26
41 -9 82 -18 91 -21 21 -6 26 40 35 294 4 101 7 191 8 200 1 13 -22 21 -119
38 -486 90 -785 144 -799 144 -12 0 -15 -6 -11 -22z m505 -157 c17 -13 25 -28
26 -51 0 -21 7 -36 20 -43 34 -19 44 -33 31 -46 -6 -6 -20 -11 -30 -11 -15 0
-18 -5 -14 -20 8 -29 -29 -60 -70 -60 -42 0 -93 50 -93 92 0 20 -8 31 -30 43
-38 20 -39 44 -2 51 24 5 28 10 24 31 -3 15 1 29 9 34 20 14 100 2 129 -20z"/>
<path d="M1607 2153 c-3 -5 -3 -35 -2 -68 3 -54 6 -60 27 -63 22 -3 23 0 24
60 0 35 -5 66 -11 70 -13 10 -33 10 -38 1z"/>
</g>
</svg>
